<?xml version="1.0" encoding="UTF-8"?>
<svg version="1.1" xmlns="http://www.w3.org/2000/svg" width="2089" height="633">
<path d="M0 0 C17.74004168 13.59618462 24.05996132 31.04073948 30.93359375 51.5234375 C31.7582934 53.94863243 32.58416609 56.37342874 33.41113281 58.79785156 C35.38267115 64.58765708 37.34239315 70.38133085 39.29550171 76.17737579 C41.529642 82.80697967 43.77340872 89.43330919 46.01809883 96.05934715 C47.13819306 99.36573947 48.25799262 102.67223153 49.37768555 105.97875977 C49.70929263 106.95796497 49.70929263 106.95796497 50.04759884 107.9569521 C51.395001 111.93639992 52.74064735 115.916437 54.08505535 119.89689732 C59.46001065 135.80983709 64.91059414 151.69318369 70.48352051 167.53796387 C77.46203526 187.4000406 84.15908907 207.35713004 90.87789917 227.30813599 C97.78433935 247.81485951 104.75507136 268.29425939 112.01953125 288.67773438 C112.30160431 289.47511017 112.58367737 290.27248596 112.8742981 291.09402466 C113.38093938 292.52601982 113.89155542 293.9566204 114.40768433 295.38522339 C116.14913408 300.32086005 117.15092853 304.93894401 118.30859375 310.1484375 C324.88859375 309.8184375 531.46859375 309.4884375 744.30859375 309.1484375 C733.82107305 291.48524474 723.33372908 273.85823709 712.6484375 256.3203125 C707.40404392 247.69631293 702.27668076 239.00274315 697.13897705 230.31494141 C692.7365293 222.87318761 688.31557819 215.45059162 683.68359375 208.1484375 C662.23752703 174.22849761 662.23752703 174.22849761 665.76953125 158.03515625 C667.86027943 151.70141913 671.39123448 146.85023041 677.16796875 143.48046875 C683.77028166 140.82579602 691.44827256 141.67375747 698.4375 141.62109375 C708.68795429 141.51360878 708.68795429 141.51360878 717.234375 136.3515625 C722.66368113 128.70465245 724.33642715 121.48887353 723.30859375 112.1484375 C721.5396501 105.24352678 718.47412194 100.0215773 713.30859375 95.1484375 C694.6654446 86.86259343 672.70634732 90.54070199 652.30859375 90.1484375 C652.30859375 155.4884375 652.30859375 220.8284375 652.30859375 288.1484375 C641.41859375 288.1484375 630.52859375 288.1484375 619.30859375 288.1484375 C619.21603834 259.43726771 619.14463602 230.72613379 619.10134506 202.01484489 C619.08071095 188.68398737 619.05257404 175.35325581 619.00683594 162.02246094 C618.96699432 150.40472385 618.94116711 138.78705507 618.93223977 127.16925156 C618.92702054 121.01645396 618.91473549 114.86385181 618.88567352 108.71111679 C618.85854691 102.9212725 618.8501433 97.1317044 618.85616302 91.3418026 C618.85506157 89.21573194 618.84709149 87.08965215 618.83177185 84.9636364 C618.81188738 82.06207714 618.81664925 79.16156238 618.82757568 76.25997925 C618.81009863 74.99634546 618.81009863 74.99634546 618.79226851 73.70718372 C618.84645589 68.38807264 619.76687274 65.35882753 623.30859375 61.1484375 C630.82419323 55.58467812 639.7521897 56.56721082 648.6953125 56.6171875 C650.40151693 56.61448785 652.10771986 56.61060151 653.81391907 56.60559082 C657.38382668 56.59970999 660.95333265 56.60820735 664.52319336 56.62695312 C669.06431476 56.64965518 673.60448572 56.63666662 678.14557171 56.61266327 C681.66928545 56.59809227 685.19278029 56.60286398 688.71650124 56.61317444 C690.38878305 56.61581519 692.06108571 56.61266701 693.73334312 56.60325623 C711.36085812 56.52585788 723.92977864 60.31353315 737.12109375 72.5234375 C746.96642601 82.91049857 752.14409359 97.35271317 752.55859375 111.5234375 C752.08229352 128.19394568 746.72609382 144.97917142 735.2265625 157.3671875 C726.95264905 165.05131079 718.50975283 168.53947129 707.37109375 168.8359375 C706.49646484 168.87009766 705.62183594 168.90425781 704.72070312 168.93945312 C702.58376121 169.02119407 700.44620157 169.0865088 698.30859375 169.1484375 C698.30859375 172.7280733 699.15881487 173.85787775 701.0625 176.84765625 C701.66191406 177.79705078 702.26132813 178.74644531 702.87890625 179.72460938 C703.86503906 181.2647168 703.86503906 181.2647168 704.87109375 182.8359375 C706.25798903 185.02723204 707.64470284 187.21864143 709.03125 189.41015625 C709.75133031 190.54354252 710.47154523 191.67684327 711.19189453 192.81005859 C714.42340952 197.90668327 717.61540852 203.02774648 720.80859375 208.1484375 C722.05964631 210.15119756 723.31094922 212.15380125 724.5625 214.15625 C725.18141113 215.14657227 725.80032227 216.13689453 726.43798828 217.15722656 C728.29822248 220.13185322 730.16055395 223.10515694 732.0234375 226.078125 C738.5584444 236.51234982 745.05455003 246.96871568 751.49609375 257.4609375 C756.54757971 265.68788497 761.63807808 273.88661258 766.80810547 282.03955078 C770.77097643 288.28935903 774.70116656 294.55911121 778.62109375 300.8359375 C779.24209961 301.83020752 779.86310547 302.82447754 780.50292969 303.84887695 C782.43849399 306.9485165 784.37360073 310.04844129 786.30859375 313.1484375 C789.07886527 317.58628867 791.8498047 322.02372164 794.62109375 326.4609375 C795.26151611 327.48727295 795.90193848 328.5136084 796.56176758 329.57104492 C797.15497803 330.52084229 797.74818848 331.47063965 798.359375 332.44921875 C798.88184814 333.28622314 799.40432129 334.12322754 799.94262695 334.9855957 C801.03963473 336.72257371 802.16902316 338.43908162 803.30859375 340.1484375 C803.30859375 341.1384375 803.30859375 342.1284375 803.30859375 343.1484375 C737.19058793 343.19985003 671.07257973 343.24754929 604.95455933 343.27546692 C603.9761723 343.27588109 602.99778528 343.27629526 601.98975017 343.27672198 C580.72735676 343.28570046 559.46496313 343.29401104 538.20256919 343.30163349 C527.77567108 343.30537554 517.34877303 343.30926519 506.921875 343.31323242 C505.88426692 343.3136247 504.84665884 343.31401698 503.77760809 343.31442114 C470.13874024 343.32720782 436.49988751 343.34974372 402.86102881 343.37732916 C368.29607151 343.4056226 333.73112257 343.42409283 299.16615388 343.43018247 C294.28538954 343.43104695 289.40462523 343.43202386 284.52386093 343.43306923 C283.56324558 343.4332715 282.60263022 343.43347377 281.61290531 343.43368217 C266.14244482 343.43722891 250.67201017 343.45114739 235.20156022 343.4689336 C219.65290237 343.48658878 204.10427015 343.49334308 188.55560263 343.48894163 C179.31504296 343.48665792 170.07457708 343.49276083 160.83403433 343.51083013 C154.6617786 343.52207618 148.48958431 343.52243101 142.31732435 343.51393294 C138.8001604 343.50940215 135.28317385 343.50960398 131.7660289 343.52308705 C127.97491121 343.53509487 124.18425497 343.52865568 120.39314461 343.51758099 C119.30439466 343.52546203 118.21564472 343.53334307 117.09390235 343.54146293 C109.04261079 343.4881784 99.76385382 342.70823889 93.59170532 336.88621521 C87.62940363 328.81119258 85.25055773 317.41629895 82.09765625 307.95703125 C81.60862452 306.50109499 81.1191471 305.04530837 80.6292572 303.58966064 C79.5954961 300.51587344 78.5641049 297.44130665 77.53469849 294.36605835 C74.82559498 286.27426362 72.09999798 278.18801536 69.375 270.1015625 C69.1064086 269.30410299 68.83781719 268.50664349 68.56108665 267.68501854 C64.41324499 255.37262352 60.19190078 243.08881819 55.87109375 230.8359375 C49.0002858 211.33526974 42.40873867 191.74189349 35.80859375 172.1484375 C28.50955596 150.48069168 21.19572926 128.82219716 13.58398438 107.26171875 C10.25429028 97.81580497 7.02607764 88.34175858 3.87109375 78.8359375 C3.10441152 76.53767872 2.33748511 74.23950138 1.5703125 71.94140625 C0.45144132 68.58957216 -0.66261988 65.23661304 -1.75927734 61.87744141 C-7.87712793 41.22205781 -7.87712793 41.22205781 -22.48046875 26.26953125 C-29.45958286 22.73065183 -36.15425814 21.79254658 -43.75390625 24.1484375 C-53.78537232 28.5460701 -58.4484817 36.5181515 -62.69140625 46.1484375 C-64.46353212 50.72825654 -66.02747676 55.36336908 -67.5625 60.02734375 C-68.00476907 61.34861793 -68.44789681 62.66960496 -68.89181519 63.99032593 C-69.8280015 66.78050934 -70.75901278 69.57233945 -71.68569946 72.36569214 C-73.15326663 76.78863584 -74.6331625 81.20738852 -76.1159668 85.62524414 C-76.36349732 86.36274241 -76.61102785 87.10024069 -76.8660593 87.86008739 C-77.36436799 89.3445679 -77.86273416 90.82902912 -78.36115837 92.31347084 C-79.1039668 94.52677474 -79.84571465 96.74043188 -80.58729553 98.95414734 C-84.30050243 110.03111522 -88.11684746 121.0688644 -92.00390625 132.0859375 C-98.91602495 151.71166151 -105.549207 171.43020906 -112.19140625 191.1484375 C-119.41865586 212.60333033 -126.66848401 234.04547862 -134.20068359 255.39575195 C-137.61041247 265.07949142 -140.92867054 274.79124032 -144.18400383 284.52784538 C-144.86576754 286.56606735 -145.54882578 288.60385084 -146.23231506 290.64149475 C-146.68833706 292.00130787 -147.14434596 293.36112538 -147.6003418 294.72094727 C-147.82629437 295.3946766 -148.05224695 296.06840593 -148.28504658 296.76255131 C-149.62223792 300.75318928 -150.94978781 304.74687614 -152.27030849 308.74305916 C-153.2906998 311.82226588 -154.32433335 314.89703391 -155.35546875 317.97265625 C-155.90144463 319.64149872 -155.90144463 319.64149872 -156.45845032 321.34405518 C-161.66200825 336.76095772 -161.66200825 336.76095772 -168.62890625 340.5859375 C-174.46348261 343.25762236 -180.630342 343.29341848 -186.94164848 343.27148533 C-187.76067929 343.27263917 -188.5797101 343.27379302 -189.42356002 343.27498183 C-192.17357827 343.27763297 -194.92353821 343.27313867 -197.67355347 343.26869202 C-199.66276091 343.26912802 -201.6519683 343.27000348 -203.64117539 343.27128118 C-209.11178361 343.27352031 -214.58237231 343.26951277 -220.05297804 343.26450312 C-225.95067819 343.2601905 -231.84837721 343.26164562 -237.74607849 343.2624054 C-248.63178237 343.26296431 -259.51747913 343.25907375 -270.40318122 343.25306451 C-280.45552603 343.24756252 -290.50786873 343.2443341 -300.560215 343.24331474 C-301.22663536 343.243246 -301.89305572 343.24317726 -302.57967064 343.24310644 C-305.96407849 343.24276811 -309.34848634 343.24246672 -312.7328942 343.24217957 C-336.70506922 343.24007912 -360.67724091 343.23334165 -384.64941406 343.22387695 C-407.93815086 343.2146927 -431.22688675 343.207609 -454.515625 343.20336914 C-455.23347674 343.20323761 -455.95132847 343.20310609 -456.69093329 343.20297058 C-463.89989093 343.20165206 -471.10884858 343.20037624 -478.31780623 343.19913172 C-493.00330356 343.1965955 -507.68880084 343.19377425 -522.3742981 343.19078064 C-523.38712274 343.1905747 -523.38712274 343.1905747 -524.4204085 343.19036461 C-569.51074249 343.18116384 -614.60107452 343.16524178 -659.69140625 343.1484375 C-659.69140625 332.2584375 -659.69140625 321.3684375 -659.69140625 310.1484375 C-504.26140625 309.8184375 -348.83140625 309.4884375 -188.69140625 309.1484375 C-180.77140625 285.7184375 -172.85140625 262.2884375 -164.69140625 238.1484375 C-157.19140625 216.6484375 -157.19140625 216.6484375 -153.72265625 206.7734375 C-148.24321059 191.11188016 -142.99036459 175.37170449 -137.69140625 159.6484375 C-130.59809708 138.60133448 -123.47720615 117.56835227 -116.08789062 96.62280273 C-112.64313852 86.84169388 -109.30217585 77.03080799 -106.02734375 67.19140625 C-105.2161608 64.76442627 -104.40480026 62.33750563 -103.59326172 59.91064453 C-102.40448788 56.35509469 -101.22011687 52.79844041 -100.05133057 49.23626709 C-94.56852361 32.52602762 -89.33381788 18.83505336 -76.69140625 6.1484375 C-76.0778125 5.51164062 -75.46421875 4.87484375 -74.83203125 4.21875 C-54.53511941 -15.29751138 -22.52915702 -15.49901368 0 0 Z " fill="#FFFFFF" transform="translate(823.69140625,161.8515625)"/>
<path d="M0 0 C2.82296878 2.82296878 3.4748698 6.20523742 4.609375 9.9375 C5.12201942 11.57173271 5.6350533 13.20584329 6.1484375 14.83984375 C6.94755844 17.40747103 7.74270051 19.97616932 8.53027344 22.54736328 C14.48543309 42.2512239 14.48543309 42.2512239 28.9765625 56.1796875 C41.10597855 62.59563344 54.08166474 62.1481876 67.42807102 62.1386652 C69.11158601 62.14111474 70.79510042 62.14399924 72.478614 62.14727798 C77.11099851 62.15503814 81.74336773 62.15661937 86.37575794 62.1572054 C91.41298765 62.15893564 96.45020931 62.16642168 101.48743433 62.17318195 C110.31766484 62.18423798 119.14789249 62.19161035 127.97812843 62.19658089 C141.10839084 62.20398854 154.23864329 62.21707209 167.36889983 62.23132664 C189.45552062 62.2551433 211.54214362 62.27435212 233.62877083 62.29092598 C255.50066432 62.30735276 277.37255451 62.32583146 299.24444389 62.34705925 C300.26344467 62.34804684 300.26344467 62.34804684 301.30303133 62.34905439 C307.50772772 62.35506893 313.71242409 62.36110875 319.91712043 62.36717889 C335.34108832 62.38226807 350.76505652 62.39704026 366.18902493 62.41159725 C367.24256852 62.41259196 367.24256852 62.41259196 368.31739582 62.41360676 C402.48071943 62.44583448 436.64404597 62.47440987 470.80737305 62.50268555 C482.66235354 62.51249949 494.51733403 62.52232959 506.37231445 62.53222656 C507.1075646 62.53284036 507.84281475 62.53345416 508.6003452 62.53408656 C542.78229489 62.56264429 576.96424208 62.59379712 611.14618887 62.62561907 C613.36539274 62.62768501 615.58459661 62.62974983 617.80380048 62.63181442 C632.51061926 62.64549841 647.217438 62.65922711 661.92425672 62.67298577 C691.18700628 62.70036151 720.44975609 62.7274745 749.71250606 62.75440695 C751.10606462 62.75568953 752.49962318 62.7569723 753.89318174 62.75825526 C841.49695045 62.83890396 929.10072432 62.91361471 1032 63 C1032 73.56 1032 84.12 1032 95 C940.36784 95.06621 848.73567736 95.12961067 748.66882324 95.16937256 C747.25704499 95.16993036 745.84526674 95.17048817 744.4334885 95.17104598 C714.79875088 95.18273716 685.164013 95.19360397 655.52927474 95.20351871 C640.64237674 95.20850022 625.75547879 95.21364011 610.8685809 95.21892977 C608.62297308 95.21972676 606.37736525 95.22051924 604.13175743 95.22131152 C569.55973756 95.23354892 534.98772333 95.24917936 500.41571045 95.2746582 C499.67259473 95.2752058 498.92947901 95.27575339 498.16384463 95.27631758 C486.18290734 95.28516687 474.20197026 95.29430139 462.22103321 95.30347376 C427.70485472 95.32989434 393.18868057 95.35419976 358.67249298 95.36455917 C357.96242743 95.36477331 357.25236187 95.36498745 356.52077918 95.36520808 C340.93167409 95.36987156 325.34256894 95.37345078 309.75346337 95.37600393 C303.48056511 95.37705039 297.20766689 95.37825288 290.93476868 95.37950897 C290.24823497 95.37964268 289.56170126 95.37977639 288.8543635 95.37991415 C266.74826673 95.38429708 244.64220219 95.40137168 222.53611843 95.42512883 C199.64054752 95.44967455 176.74500613 95.46005305 153.84941936 95.45400551 C140.65089145 95.45096182 127.45248032 95.45908655 114.25397348 95.48319017 C105.43579043 95.49819482 96.6176838 95.49865102 87.79949546 95.48732725 C82.77600617 95.48129142 77.75273764 95.48153401 72.72927207 95.49953273 C68.15227017 95.51580687 63.57565979 95.51339591 58.9986634 95.4965599 C57.35979056 95.49372089 55.7208883 95.49747848 54.08205309 95.50894098 C40.35758848 95.5987884 26.94994959 93.86055041 14.625 87.3125 C13.6359668 86.8009436 13.6359668 86.8009436 12.62695312 86.27905273 C6.59698966 83.02561872 1.735049 78.9483395 -3 74 C-3.70511719 73.31421875 -4.41023437 72.6284375 -5.13671875 71.921875 C-16.04323081 60.70374831 -20.26106597 45.14957957 -24.9375 30.625 C-25.53090601 28.80957029 -26.12530115 26.99446358 -26.72070312 25.1796875 C-28.15853254 20.79008775 -29.58302169 16.39637259 -31 12 C-28.53930858 9.09017167 -26.18952401 8.15836664 -22.59765625 6.9921875 C-21.54255859 6.64542969 -20.48746094 6.29867188 -19.40039062 5.94140625 C-18.29888672 5.58949219 -17.19738281 5.23757813 -16.0625 4.875 C-14.41604492 4.33552734 -14.41604492 4.33552734 -12.73632812 3.78515625 C-9.82931601 2.83802723 -6.92305009 1.89641297 -4 1 C-3.2670874 0.75781738 -2.5341748 0.51563477 -1.77905273 0.26611328 C-1.19196533 0.1782959 -0.60487793 0.09047852 0 0 Z " fill="#FFFFFF" transform="translate(884,460)"/>
<path d="M0 0 C1.63129199 -0.00322204 3.2625837 -0.00658679 4.89387512 -0.01008606 C8.30205962 -0.01604554 11.71021887 -0.0179293 15.1184082 -0.01733398 C19.44378191 -0.01723266 23.76899037 -0.03086818 28.09432507 -0.04810619 C31.46192641 -0.0593331 34.82948919 -0.06124993 38.19710732 -0.06072426 C39.78959025 -0.06188899 41.3820747 -0.06622381 42.9745388 -0.07405663 C56.18726812 -0.13295578 69.48371657 0.3150796 82.08203125 4.73046875 C83.20097778 5.11682495 83.20097778 5.11682495 84.3425293 5.51098633 C98.1451022 10.51060765 109.42717059 18.26589832 120.14453125 28.16796875 C121.24861328 29.15023437 121.24861328 29.15023437 122.375 30.15234375 C141.40541922 47.92926231 152.24166087 74.75660796 153.36328125 100.4921875 C154.22267754 131.3529145 145.18480134 160.549079 125.14453125 184.16796875 C123.83033106 185.52016452 122.50410659 186.86140438 121.14453125 188.16796875 C122.47170791 191.71395101 124.04439913 194.85980767 126.015625 198.08984375 C126.58394043 199.0236084 127.15225586 199.95737305 127.73779297 200.91943359 C128.3463916 201.9089502 128.95499023 202.8984668 129.58203125 203.91796875 C130.21383301 204.95002441 130.84563477 205.98208008 131.49658203 207.04541016 C135.95509308 214.30133001 140.51685407 221.48103991 145.17578125 228.609375 C148.83214833 234.20629326 152.42191384 239.84568722 156.01953125 245.48046875 C160.39630369 252.33272596 164.78840278 259.17349025 169.23754883 265.97900391 C174.35251123 273.80299325 179.3888532 281.6716508 184.33203125 289.60546875 C184.88528076 290.4881543 185.43853027 291.37083984 186.00854492 292.28027344 C186.5213501 293.10817383 187.03415527 293.93607422 187.5625 294.7890625 C188.01391357 295.51536865 188.46532715 296.2416748 188.93041992 296.98999023 C190.14453125 299.16796875 190.14453125 299.16796875 192.14453125 304.16796875 C274.64453125 304.16796875 357.14453125 304.16796875 442.14453125 304.16796875 C442.14453125 315.05796875 442.14453125 325.94796875 442.14453125 337.16796875 C408.10512745 337.37139393 374.06595027 337.53253713 340.02607479 337.62755672 C336.00810483 337.63881318 331.9901361 337.65046207 327.97216797 337.66235352 C327.17225707 337.66471431 326.37234618 337.6670751 325.54819556 337.66950744 C312.59313918 337.70867799 299.63844194 337.77964346 286.68359868 337.86234391 C273.39238626 337.94648451 260.10136203 337.9964927 246.8098942 338.0147652 C238.60697094 338.02711958 230.40506272 338.0661473 222.2024519 338.13921695 C216.5788668 338.18676291 210.95580701 338.20117651 205.33203547 338.18948115 C202.08602084 338.18371099 198.84215669 338.19750494 195.59637451 338.24081802 C192.07628418 338.28549606 188.56056267 338.27487892 185.04037476 338.2502594 C184.01507766 338.27647497 182.98978057 338.30269055 181.93341386 338.32970053 C175.17164197 338.20154864 175.17164197 338.20154864 172.23558545 335.24699962 C170.67916075 332.94674498 169.39477607 330.64574607 168.14453125 328.16796875 C167.25982665 326.69198194 166.36660786 325.2210283 165.4609375 323.7578125 C164.54149287 322.20790583 163.62359077 320.65708331 162.70703125 319.10546875 C156.32427573 308.38769527 149.71585264 297.81738216 143.08105469 287.25439453 C140.50065896 283.14176685 137.93033174 279.02288971 135.35986328 274.90405273 C128.80508102 264.40244046 122.21654269 253.92278142 115.59619141 243.46240234 C113.10979592 239.53250917 110.6274035 235.60008843 108.14453125 231.66796875 C107.14454961 230.08462382 106.14454963 228.50129047 105.14453125 226.91796875 C103.14453125 223.75130208 101.14453125 220.58463542 99.14453125 217.41796875 C98.64880615 216.63309082 98.15308105 215.84821289 97.64233398 215.03955078 C96.64958461 213.46765715 95.65690796 211.89571759 94.66430664 210.32373047 C92.05398879 206.189976 89.44214286 202.05719715 86.828125 197.92578125 C86.28478516 197.06662109 85.74144531 196.20746094 85.18164062 195.32226562 C84.14304564 193.68004278 83.10400877 192.03809928 82.06445312 190.39648438 C80.75346784 188.32300559 79.44809684 186.24611679 78.14453125 184.16796875 C77.53738281 183.20632813 76.93023438 182.2446875 76.3046875 181.25390625 C75.14453125 179.16796875 75.14453125 179.16796875 75.14453125 177.16796875 C76.03914063 176.76707031 76.93375 176.36617187 77.85546875 175.953125 C95.91604874 167.58585005 107.14177411 153.74235508 114.14453125 135.16796875 C116.71176114 127.37343901 118.78500644 119.39209868 119.14453125 111.16796875 C119.19609375 110.36746094 119.24765625 109.56695312 119.30078125 108.7421875 C120.07889061 86.85786184 111.1843031 67.79730124 96.51953125 51.98046875 C84.41949851 40.30727766 68.31861754 34.09349854 51.58544922 34.00683594 C50.85282364 34.00187103 50.12019806 33.99690613 49.3653717 33.99179077 C46.95581092 33.97725854 44.54631605 33.97038083 42.13671875 33.96484375 C41.30769169 33.96201637 40.47866463 33.959189 39.62451553 33.95627594 C35.23404882 33.94131663 30.84361466 33.93206761 26.453125 33.92773438 C21.94791499 33.92226603 17.44300968 33.89826337 12.93789482 33.86976242 C9.44773528 33.85101172 5.95764718 33.8459238 2.46744156 33.8443985 C0.80827297 33.84139753 -0.85089514 33.83345697 -2.51001358 33.82021332 C-15.65149166 33.72283144 -28.45742697 34.02842012 -38.85546875 43.16796875 C-45.89948319 50.629063 -48.31191512 58.54212675 -48.25419617 68.59594727 C-48.26084299 69.51341484 -48.26748982 70.43088242 -48.27433807 71.37615204 C-48.29290715 74.43317427 -48.29036686 77.48980301 -48.2878418 80.546875 C-48.29686266 82.74507701 -48.30719067 84.94327398 -48.31872559 87.14146423 C-48.34628345 93.09742544 -48.35557852 99.05329116 -48.36157966 105.00930786 C-48.37096641 111.2380145 -48.39717009 117.46664991 -48.42158508 123.6953125 C-48.46028662 134.14598384 -48.48864306 144.59664096 -48.5090332 155.04736328 C-48.53005799 165.80878448 -48.55734614 176.57015992 -48.59301758 187.33154297 C-48.5952164 187.99554119 -48.59741523 188.65953942 -48.59968068 189.3436588 C-48.61075071 192.67494197 -48.62195014 196.00622467 -48.63319719 199.33750725 C-48.72603678 226.94762375 -48.79712279 254.55775967 -48.85546875 282.16796875 C-60.07546875 282.16796875 -71.29546875 282.16796875 -82.85546875 282.16796875 C-82.90182449 253.98609552 -82.93748761 225.80423152 -82.95909309 197.6223278 C-82.96939283 184.53612849 -82.98342824 171.44995334 -83.00634766 158.36376953 C-83.02632143 146.95397682 -83.03919465 135.54420162 -83.04364574 124.1343919 C-83.04624636 118.09653945 -83.05233178 112.05873708 -83.06692886 106.02090073 C-83.0805758 100.32957895 -83.08467708 94.63832755 -83.08168411 88.94699097 C-83.08223111 86.86621848 -83.08616593 84.78544347 -83.0938797 82.70468521 C-83.17868987 58.63221402 -80.88861022 37.72509263 -63.54296875 19.35546875 C-45.3732866 2.15027315 -23.73182145 0.01111086 0 0 Z " fill="#FFFFFF" transform="translate(1473.85546875,167.83203125)"/>
<path d="M0 0 C1.80963226 -0.00855011 1.80963226 -0.00855011 3.65582275 -0.01727295 C6.2075514 -0.02669439 8.75929205 -0.03324554 11.31103516 -0.03710938 C15.14898993 -0.04673917 18.98639112 -0.07775948 22.82421875 -0.109375 C62.75306117 -0.28210309 98.6366391 9.59050624 128.453125 37.203125 C128.99565918 37.70183105 129.53819336 38.20053711 130.09716797 38.71435547 C158.11468087 64.75938286 172.8055781 100.00553203 174.58203125 137.95703125 C175.40752092 177.52550276 159.68992622 212.97139939 133.0078125 241.6484375 C117.4859895 257.1702605 98.18492873 268.51826646 77.515625 275.578125 C76.12476685 276.06067749 76.12476685 276.06067749 74.70581055 276.55297852 C56.26184482 282.54572285 38.00114472 282.6129608 18.7890625 282.49609375 C16.05710087 282.48879684 13.32513958 282.48607391 10.59317017 282.48323059 C4.18694565 282.47398932 -2.21912116 282.44948565 -8.62527692 282.41918212 C-15.93145794 282.38538796 -23.23764738 282.36908993 -30.54388738 282.35409582 C-45.54497039 282.32292672 -60.54590675 282.27032447 -75.546875 282.203125 C-75.64049083 253.42117076 -75.71093863 224.63923948 -75.75412369 195.85716343 C-75.75822949 193.19180351 -75.76236809 190.5264437 -75.76660156 187.86108398 C-75.7676508 187.19863617 -75.76870005 186.53618835 -75.76978108 185.85366636 C-75.78605952 175.82289179 -75.81420561 165.79220347 -75.84863281 155.76147461 C-75.88861501 144.10664187 -75.91433492 132.45187784 -75.92322898 120.79697841 C-75.92842446 114.63097461 -75.94055757 108.46516732 -75.96979523 102.29922676 C-75.99714434 96.48390453 -76.00528087 90.66885792 -75.99930573 84.85347748 C-76.00039729 82.73041468 -76.00823398 80.60734171 -76.0236969 78.48433495 C-76.17353445 56.83205589 -73.36274419 36.62106533 -57.80639648 20.26416016 C-41.84257808 4.29219556 -21.83787874 0.08121318 0 0 Z M-35.39453125 45.2734375 C-43.18475145 55.95388681 -42.99183381 68.23103313 -42.96679688 80.88012695 C-42.97414837 82.64539625 -42.98273773 84.41066076 -42.99246216 86.17591858 C-43.01456058 90.94002401 -43.01761514 95.70395592 -43.01571465 100.46810555 C-43.01559453 104.45208862 -43.02417446 108.43603545 -43.03249216 112.42000836 C-43.05167997 121.81591912 -43.05462516 131.21174104 -43.04785156 140.60766602 C-43.041197 150.29466721 -43.06414254 159.98128897 -43.10116529 169.66821319 C-43.13184667 177.99884302 -43.14322454 186.32935058 -43.13932848 194.66003579 C-43.1372613 199.63003927 -43.14273726 204.5997466 -43.16722107 209.56969643 C-43.18946298 214.23781877 -43.18763187 218.90532124 -43.16729355 223.57344627 C-43.16388022 225.28508866 -43.16898653 226.99677263 -43.18327713 228.70835876 C-43.20145564 231.04700339 -43.18873458 233.3835411 -43.16833496 235.72212219 C-43.16904747 237.02968633 -43.16975998 238.33725046 -43.17049408 239.68443775 C-42.34488479 244.34282773 -40.94042772 245.94703926 -37.546875 249.203125 C-34.63491222 249.80333164 -32.5496047 250.00857765 -29.64575195 249.94775391 C-28.47370712 249.9587059 -28.47370712 249.9587059 -27.27798462 249.96987915 C-24.69615377 249.98607679 -22.11684319 249.9588591 -19.53515625 249.9296875 C-17.72454327 249.92864872 -15.91392802 249.92969022 -14.10331726 249.93270874 C-10.30087741 249.93252927 -6.49928523 249.91169401 -2.69702148 249.87548828 C2.12510632 249.83053283 6.94597369 249.8289479 11.76825237 249.84252357 C15.51525118 249.84928812 19.2619746 249.8357792 23.00892067 249.81626511 C24.78311523 249.80867401 26.55734081 249.80621663 28.33154869 249.8094368 C60.23786642 249.81910402 87.60536365 238.80057098 110.515625 216.515625 C131.6311357 195.28621182 140.89212466 167.35333073 140.81884766 137.91333008 C140.43173059 110.81335966 129.63904832 87.00378069 111.453125 67.203125 C110.71191406 66.37941406 109.97070312 65.55570313 109.20703125 64.70703125 C91.01891563 45.45098957 63.47994572 33.82317127 37.19946289 32.91577148 C31.26816529 32.78882607 25.33913019 32.78127394 19.40673828 32.81201172 C15.69656959 32.82815352 11.98748032 32.81206036 8.27734375 32.79296875 C5.88281013 32.79495042 3.48827718 32.7987925 1.09375 32.8046875 C0.00282043 32.79861481 -1.08810913 32.79254211 -2.21209717 32.7862854 C-15.03833463 32.90195583 -26.57919953 35.39579308 -35.39453125 45.2734375 Z " fill="#FFFFFF" transform="translate(239.546875,167.796875)"/>
<path d="M0 0 C1.78358452 1.52689654 3.55413428 3.06912829 5.3125 4.625 C6.29992188 5.47964844 7.28734375 6.33429688 8.3046875 7.21484375 C29.67010483 25.98742018 44.99456918 51.86152023 51.3125 79.625 C51.47476074 80.33495117 51.63702148 81.04490234 51.80419922 81.77636719 C59.46108556 117.12921498 53.18634987 156.03566118 33.64428711 186.58325195 C12.6965047 218.21645828 -16.88653827 240.00802394 -53.6875 249.625 C-54.80769531 249.92535156 -55.92789062 250.22570312 -57.08203125 250.53515625 C-77.13812674 254.97600129 -101.82962522 254.8620068 -121.6875 249.625 C-123.01167385 249.31621365 -124.33589408 249.00762612 -125.66015625 248.69921875 C-160.79654785 239.94738854 -191.64260182 216.01219269 -210.4375 185.3125 C-222.91977508 164.04288214 -229.40143624 141.21704842 -230.6875 116.625 C-230.73003906 115.84125 -230.77257813 115.0575 -230.81640625 114.25 C-231.80165619 76.4164022 -216.40287075 40.82394983 -190.6875 13.625 C-189.99140625 12.87605469 -189.2953125 12.12710938 -188.578125 11.35546875 C-140.34119233 -38.90600671 -54.05628689 -43.32225278 0 0 Z M-157.6875 28.625 C-158.48285156 29.28886719 -159.27820312 29.95273438 -160.09765625 30.63671875 C-179.70703308 47.51836155 -194.48360735 72.45377474 -196.6875 98.625 C-198.50131229 129.44469375 -192.26321379 157.65861075 -171.6875 181.625 C-151.19314449 204.64202101 -125.12035807 218.2508103 -94.125 220.375 C-63.46797244 221.97756286 -36.34447555 211.14249383 -13.4375 191.125 C7.68469587 171.55243892 20.25420733 145.22234519 21.53515625 116.33984375 C22.35646276 86.96774968 11.95870928 59.3535025 -8.0859375 37.953125 C-28.45713164 16.73533577 -55.5666021 4.07408361 -85.14038086 3.27124023 C-111.52020587 3.05126086 -137.5800454 11.17826718 -157.6875 28.625 Z " fill="#FFFFFF" transform="translate(1870.6875,197.375)"/>
<path d="M0 0 C3.76889182 0.01264628 7.53778808 0.01368866 11.30669785 0.01605082 C18.41772128 0.02222529 25.52868198 0.03858049 32.639678 0.05874979 C40.74629464 0.08123563 48.85291453 0.09213386 56.95955467 0.10214067 C73.61152559 0.12295113 90.26341027 0.15957582 106.91534042 0.20278788 C106.91534042 11.09278788 106.91534042 21.98278788 106.91534042 33.20278788 C102.81757187 33.22260721 98.71980331 33.24242655 94.49785995 33.26284647 C80.94708975 33.32980321 67.39639735 33.40734393 53.84571648 33.49031496 C45.63131303 33.54035427 37.41691913 33.5867979 29.2024498 33.62466288 C22.03949323 33.6576901 14.87661269 33.69757994 7.71374023 33.74557793 C3.92399126 33.77073668 0.13429203 33.79254879 -3.65551758 33.80613184 C-7.22929562 33.81904932 -10.80290214 33.84120591 -14.37658501 33.87017107 C-16.29977597 33.88343365 -18.22302551 33.88714952 -20.14625931 33.89048624 C-31.70658034 34.00112063 -43.02055501 35.13819332 -52.12762833 42.95669413 C-59.74408146 50.99538133 -62.19574283 60.75968019 -62.22510147 71.61407328 C-62.23081161 72.88393076 -62.23652176 74.15378824 -62.24240494 75.46212626 C-62.24365008 76.85696258 -62.24477522 78.25179902 -62.24579239 79.64663553 C-62.25042526 81.12556948 -62.25545055 82.60450224 -62.26083755 84.08343363 C-62.27392033 88.09202024 -62.28039871 92.10059014 -62.28484821 96.10919476 C-62.28778625 98.61828346 -62.29189247 101.12736767 -62.29635239 103.63645411 C-62.31001789 111.50026716 -62.31968857 119.36406985 -62.32355428 127.22789395 C-62.32802962 136.2801607 -62.34555711 145.33227606 -62.37455487 154.38449681 C-62.39623507 161.39791388 -62.40626197 168.41128856 -62.4075954 175.42473876 C-62.40863911 179.60576468 -62.41445355 183.7866481 -62.43241501 187.96763849 C-62.44900523 191.90591294 -62.45099867 195.84393944 -62.442276 199.78223658 C-62.44151138 201.21883421 -62.4457714 202.65544578 -62.45573425 204.09200907 C-62.53929195 216.90306996 -61.48655265 229.06259856 -52.55731583 238.88247538 C-45.01543088 246.01621125 -35.26480418 248.29635708 -25.1241188 248.36100626 C-23.95471756 248.37079508 -22.78531631 248.3805839 -21.58047867 248.39066935 C-19.67723328 248.39930254 -19.67723328 248.39930254 -17.73553848 248.40811014 C-16.37506189 248.41769862 -15.01458822 248.42770927 -13.65411758 248.43810892 C-9.97279085 248.46505899 -6.29145143 248.48612189 -2.6100812 248.50611091 C1.24164719 248.52803178 5.09333689 248.55539053 8.94503403 248.58216715 C16.23341908 248.63201174 23.5218257 248.67698099 30.81025279 248.72018951 C39.11013861 248.76963241 47.40998562 248.82452431 55.70983386 248.8798691 C72.7783015 248.9935627 89.84680487 249.0997098 106.91534042 249.20278788 C106.91534042 260.09278788 106.91534042 270.98278788 106.91534042 282.20278788 C89.03377842 282.24805413 71.15226583 282.28484628 53.27066231 282.30641222 C44.96665384 282.31669485 36.66268367 282.33069708 28.3586998 282.35366678 C21.11518629 282.37369345 13.87170055 282.38652617 6.62816012 282.39096487 C2.79800324 282.39355665 -1.03207425 282.3995845 -4.86220551 282.41424799 C-8.47861658 282.42797906 -12.09491673 282.43197971 -15.71135139 282.42900324 C-17.64813413 282.42980258 -19.58490521 282.44048198 -21.52165604 282.45162821 C-43.019009 282.40191198 -61.79946898 277.58079567 -77.76434708 262.61685038 C-90.18764545 249.69160056 -96.17933766 232.14086927 -96.22510147 214.3877244 C-96.22807259 213.73895854 -96.23104372 213.09019267 -96.23410487 212.42176723 C-96.24271376 210.26738047 -96.24429346 208.11304979 -96.24579239 205.95864725 C-96.25042625 204.40561669 -96.25545167 202.85258725 -96.26083755 201.29955912 C-96.27391228 197.09248948 -96.28039732 192.88543578 -96.28484821 188.67834902 C-96.28778804 186.04343184 -96.29189462 183.40851893 -96.29635239 180.77360392 C-96.31001683 172.51093791 -96.31968758 164.24828176 -96.32355428 155.98560524 C-96.32802697 146.48285757 -96.34554255 136.9802543 -96.37455487 127.47755051 C-96.39625893 120.10992934 -96.40626326 112.74234853 -96.4075954 105.37469578 C-96.40863757 100.98511707 -96.41441842 96.59567429 -96.43241501 92.20612955 C-96.44904645 88.06920845 -96.45097918 83.93252326 -96.442276 79.79558039 C-96.4415135 78.28928982 -96.4457424 76.78298577 -96.45573425 75.27672815 C-96.5693629 57.05757336 -93.37517148 39.99632256 -82.08465958 25.20278788 C-81.53422989 24.46415506 -80.9838002 23.72552225 -80.41669083 22.96450663 C-68.96685888 8.82921303 -51.95524124 2.49643507 -34.31122208 0.58883524 C-22.92601305 -0.39828796 -11.42031154 -0.0448888 0 0 Z " fill="#FFFFFF" transform="translate(1251.084659576416,167.79721212387085)"/>
<path d="M0 0 C6.80864333 1.45170693 13.33729492 3.28292479 19.9375 5.5 C20.88173828 5.80808594 21.82597656 6.11617188 22.79882812 6.43359375 C24.14944336 6.88412109 24.14944336 6.88412109 25.52734375 7.34375 C26.33937256 7.61380859 27.15140137 7.88386719 27.98803711 8.16210938 C30 9 30 9 32 11 C30.29170966 16.44510321 28.56779696 21.88493945 26.83032227 27.32080078 C26.24350535 29.16389051 25.66069996 31.00826317 25.08227539 32.85400391 C17.78284851 56.12369202 8.6124734 75.93080761 -13.60546875 88.39453125 C-24.30841246 93.45656792 -35.55196902 96.16341918 -47.39079857 96.12304783 C-48.64213783 96.1247786 -48.64213783 96.1247786 -49.91875666 96.12654433 C-52.72046516 96.12919597 -55.52211645 96.12470075 -58.32382202 96.12025452 C-60.35015267 96.12069051 -62.37648326 96.12156595 -64.40281355 96.12284368 C-69.9760358 96.12508302 -75.54923889 96.12107499 -81.1224587 96.11606562 C-87.13058933 96.11175329 -93.13871885 96.1132081 -99.14685059 96.1139679 C-109.55803021 96.11449263 -119.96920468 96.11138593 -130.38038254 96.10573006 C-141.2997376 96.09981332 -152.21909016 96.09596417 -163.13844681 96.09487724 C-163.81734429 96.0948085 -164.49624178 96.09473976 -165.19571191 96.09466894 C-168.64348017 96.09433061 -172.09124842 96.09402922 -175.53901668 96.09374207 C-199.96042037 96.09164158 -224.3818208 96.084904 -248.80322266 96.07543945 C-272.5284829 96.06625531 -296.25374224 96.05917155 -319.97900391 96.05493164 C-320.71030215 96.05480011 -321.44160039 96.05466859 -322.19505918 96.05453308 C-329.53904742 96.05321456 -336.88303566 96.05193874 -344.22702391 96.05069422 C-359.18761438 96.04815799 -374.14820478 96.04533674 -389.10879517 96.04234314 C-389.796661 96.04220585 -390.48452683 96.04206856 -391.19323708 96.04192711 C-437.12882611 96.03272623 -483.06441319 96.01680416 -529 96 C-529 85.44 -529 74.88 -529 64 C-526.54242374 63.99668985 -524.08484749 63.99337971 -521.55279922 63.98996925 C-478.53818163 63.93180555 -435.52356831 63.8711099 -392.50897217 63.79867554 C-391.83536457 63.79754191 -391.16175697 63.79640829 -390.46773702 63.79524031 C-375.8276494 63.7705876 -361.18756257 63.74549466 -346.54747649 63.71994839 C-339.36775139 63.70742278 -332.18802613 63.69499442 -325.00830078 63.68261719 C-324.29384024 63.68138386 -323.5793797 63.68015054 -322.84326884 63.67887984 C-299.69478563 63.63896576 -276.54629856 63.60547102 -253.39780076 63.57531309 C-229.60531571 63.54428221 -205.81284948 63.50675939 -182.02038779 63.46109388 C-178.65816138 63.45464369 -175.29593483 63.44826754 -171.93370819 63.44193649 C-170.94112818 63.44006404 -170.94112818 63.44006404 -169.92849606 63.43815375 C-158.62975986 63.41704121 -147.33103087 63.40395954 -136.03228143 63.39273749 C-125.98373264 63.38219708 -115.93521321 63.36437635 -105.88668653 63.34083296 C-100.08887873 63.3274638 -94.29111208 63.31730236 -88.49328804 63.31578636 C-83.18190317 63.31432663 -77.87061738 63.30369365 -72.55926296 63.28586559 C-70.64116735 63.28102854 -68.72305977 63.27951396 -66.80495933 63.28172119 C-49.36941292 63.29848653 -34.00703897 62.79129034 -20.32421875 50.8046875 C-12.7820816 41.70341948 -9.87603246 29.40687015 -6.1875 18.375 C-5.58464653 16.58962003 -4.98113623 14.8044617 -4.37695312 13.01953125 C-2.91038176 8.68220639 -1.45273794 4.34197677 0 0 Z " fill="#FFFFFF" transform="translate(693,459)"/>
<path d="M0 0 C3.76889182 0.01264628 7.53778808 0.01368866 11.30669785 0.01605082 C18.41772128 0.02222529 25.52868198 0.03858049 32.639678 0.05874979 C40.74629464 0.08123563 48.85291453 0.09213386 56.95955467 0.10214067 C73.61152559 0.12295113 90.26341027 0.15957582 106.91534042 0.20278788 C106.91534042 11.09278788 106.91534042 21.98278788 106.91534042 33.20278788 C102.81757187 33.22260721 98.71980331 33.24242655 94.49785995 33.26284647 C80.94708975 33.32980321 67.39639735 33.40734393 53.84571648 33.49031496 C45.63131303 33.54035427 37.41691913 33.5867979 29.2024498 33.62466288 C22.03949323 33.6576901 14.87661269 33.69757994 7.71374023 33.74557793 C3.92399126 33.77073668 0.13429203 33.79254879 -3.65551758 33.80613184 C-7.22929562 33.81904932 -10.80290214 33.84120591 -14.37658501 33.87017107 C-16.29977597 33.88343365 -18.22302551 33.88714952 -20.14625931 33.89048624 C-31.70658034 34.00112063 -43.02055501 35.13819332 -52.12762833 42.95669413 C-59.75869785 51.01080802 -62.19592404 60.78629847 -62.22510147 71.65876627 C-62.23081161 72.93848307 -62.23652176 74.21819986 -62.24240494 75.53669596 C-62.24365008 76.94256439 -62.24477522 78.34843293 -62.24579239 79.75430155 C-62.25042516 81.24471009 -62.25545043 82.73511746 -62.26083755 84.22552347 C-62.2739202 88.2650337 -62.28039853 92.30452733 -62.28484821 96.34405541 C-62.2877859 98.8718974 -62.29189203 101.39973491 -62.29635239 103.92757463 C-62.31001703 111.84851677 -62.31968848 119.76944863 -62.32355428 127.69040173 C-62.32803126 136.81172858 -62.34556678 145.9329053 -62.37455487 155.05418652 C-62.39622357 162.11939219 -62.40626134 169.18455578 -62.4075954 176.2497943 C-62.4086398 180.46264592 -62.41446946 184.67535621 -62.43241501 188.88817263 C-62.44898552 192.85517061 -62.45100805 196.82192239 -62.442276 200.78894281 C-62.44151038 202.23724833 -62.44578501 203.68556758 -62.45573425 205.13383913 C-62.53722222 217.74482124 -61.31528473 229.23245683 -52.55731583 238.88638163 C-43.28599667 247.63414394 -31.67885843 248.34369658 -19.57147598 248.40811014 C-18.4196785 248.41800974 -17.26788101 248.42790934 -16.08118057 248.43810892 C-12.28288182 248.46963788 -8.48457057 248.49444739 -4.68622208 248.51919413 C-2.04920506 248.53977107 0.58780871 248.56076774 3.22481918 248.58216715 C9.45072176 248.63198377 15.67664944 248.67696328 21.90260088 248.72018951 C28.99332401 248.76965646 36.08400201 248.82453937 43.17468143 248.8798691 C57.75485833 248.9935197 72.33508016 249.10039526 86.91534042 249.20278788 C86.6007623 250.63805909 86.28498296 252.07306707 85.96870041 253.50796366 C85.79298036 254.30711191 85.6172603 255.10626017 85.4362154 255.92962503 C84.80554117 258.68196541 84.04448646 261.3762552 83.22393417 264.07778788 C82.91907089 265.08196756 82.61420761 266.08614725 82.30010605 267.12075663 C81.98750839 268.13782694 81.67491074 269.15489725 81.35284042 270.20278788 C81.03637558 271.25079569 80.71991074 272.2988035 80.39385605 273.37856913 C78.04294459 281.07518371 78.04294459 281.07518371 76.91534042 282.20278788 C75.53017604 282.30253952 74.13998049 282.33353476 72.75123215 282.33650064 C71.85294693 282.34076563 70.95466171 282.34503061 70.02915573 282.34942484 C69.03551514 282.34897165 68.04187454 282.34851847 67.01812363 282.34805155 C65.45692795 282.35308947 65.45692795 282.35308947 63.86419296 282.35822916 C60.39815726 282.3677819 56.93216975 282.36968524 53.46612167 282.37075663 C51.05728256 282.37396912 48.64844365 282.37733319 46.23960495 282.38084269 C41.17277195 282.38684677 36.10595603 282.38868157 31.03911972 282.38809061 C24.5756584 282.38798958 18.1123084 282.40157473 11.64887333 282.41886282 C6.6634179 282.43004261 1.67798873 282.43200789 -3.30747795 282.43148088 C-5.68787198 282.43265458 -8.06826682 282.43704179 -10.44864845 282.44481325 C-35.8510108 282.51989937 -58.29966863 280.86117281 -77.76434708 262.61685038 C-89.82093154 250.07313119 -96.18116109 232.72176757 -96.22510147 215.42532206 C-96.22807259 214.76853795 -96.23104372 214.11175384 -96.23410487 213.43506718 C-96.24273414 211.24760155 -96.24429522 209.06019101 -96.24579239 206.87270975 C-96.25042482 205.2985 -96.25545005 203.72429137 -96.26083755 202.15008402 C-96.27392649 197.88104082 -96.28040018 193.61201333 -96.28484821 189.34295321 C-96.28778587 186.67035956 -96.29189207 183.99777013 -96.29635239 181.32517862 C-96.31002088 172.94771502 -96.31968952 164.57026115 -96.32355428 156.19278717 C-96.32802728 146.55191912 -96.34554263 136.91119338 -96.37455487 127.27036858 C-96.39624756 119.800024 -96.40626266 112.32971923 -96.4075954 104.85934353 C-96.40863842 100.40662545 -96.41443776 95.95404126 -96.43241501 91.5013566 C-96.44902644 87.30535697 -96.45098859 83.10958999 -96.442276 78.91356897 C-96.44151244 77.38428351 -96.44575695 75.85498486 -96.45573425 74.32573175 C-96.57883637 54.25987548 -91.89139674 34.77455908 -78.02215958 19.57778788 C-55.99008307 -0.83500461 -28.21732657 -0.11091133 0 0 Z " fill="#FFFFFF" transform="translate(533.084659576416,167.79721212387085)"/>
<path d="M0 0 C1.59996496 0.00186874 3.1999305 0.00329048 4.79989624 0.00428772 C8.97879663 0.00807704 13.15766139 0.01787604 17.33654785 0.0289917 C22.36777511 0.0410981 27.39901438 0.04562515 32.43025208 0.05144501 C40.04467188 0.06109025 47.65901374 0.08027172 55.2734375 0.09765625 C55.2734375 10.98765625 55.2734375 21.87765625 55.2734375 33.09765625 C50.34535156 33.13503906 45.41726563 33.17242187 40.33984375 33.2109375 C37.18160841 33.24128236 34.02342506 33.27247241 30.86523438 33.30664062 C25.87364634 33.36056581 20.88216106 33.41168567 15.89038086 33.4440918 C11.85715276 33.47047352 7.82427838 33.51110852 3.79127312 33.56084251 C2.26748051 33.57727953 0.74362708 33.58893555 -0.78024101 33.59527016 C-28.38311284 33.72139828 -54.26829927 41.28729777 -75.7265625 59.09765625 C-76.58765625 59.79503906 -77.44875 60.49242187 -78.3359375 61.2109375 C-98.42691699 78.2757912 -110.79750368 104.12944444 -113.7265625 130.09765625 C-115.94207058 160.28587259 -107.77960643 188.51928148 -87.95703125 211.6171875 C-87.22097656 212.43574219 -86.48492188 213.25429688 -85.7265625 214.09765625 C-85.04207031 214.86464844 -84.35757813 215.63164062 -83.65234375 216.421875 C-63.25461394 238.02612488 -34.3689862 248.18981697 -5.18811035 249.22293091 C-1.31044297 249.30684828 2.56708352 249.36587196 6.4453125 249.4140625 C7.86306272 249.43469503 9.28080766 249.45569282 10.69854736 249.47703552 C14.38744774 249.53160732 18.07639745 249.58129601 21.76538086 249.62988281 C26.2143581 249.6895296 30.66324737 249.75539177 35.1121521 249.8201828 C41.83252577 249.9173728 48.55296204 250.00678676 55.2734375 250.09765625 C55.2734375 260.65765625 55.2734375 271.21765625 55.2734375 282.09765625 C45.39711037 282.16589435 35.52094417 282.22073585 25.64443302 282.25309277 C21.0565662 282.26863572 16.46887139 282.28966141 11.88110352 282.32397461 C7.43956796 282.35697975 2.99819605 282.37459431 -1.44345284 282.38228798 C-3.12361789 282.38775872 -4.80377573 282.3984372 -6.48386955 282.41484642 C-45.58576813 282.78096498 -80.67466497 267.07050075 -108.4140625 239.91015625 C-135.79282186 212.35139391 -148.07313901 176.39538767 -147.97094727 138.06298828 C-147.71252479 99.32150269 -130.78990793 64.90568746 -103.42578125 37.8203125 C-74.644205 11.01717521 -38.74147465 -0.13394876 0 0 Z " fill="#FFFFFF" transform="translate(1072.7265625,167.90234375)"/>
<path d="M0 0 C1.00144043 0.00491455 2.00288086 0.0098291 3.03466797 0.01489258 C24.17603914 0.34644858 43.56233254 7.70673649 59.75 21.3125 C60.85988281 22.20388672 60.85988281 22.20388672 61.9921875 23.11328125 C79.05244456 37.36951682 89.67159409 59.32245229 91.75 81.3125 C93.35892436 107.21179988 86.50898394 130.90677018 69.3125 150.625 C67.81133201 152.20640284 66.29049692 153.76938318 64.75 155.3125 C63.99203125 156.08207031 63.2340625 156.85164062 62.453125 157.64453125 C47.35280071 172.12801223 26.50959461 180.20933314 5.75 181.3125 C4.56470703 181.39177734 4.56470703 181.39177734 3.35546875 181.47265625 C-21.6437906 182.35588661 -44.65258348 172.91911772 -63.11328125 156.34765625 C-78.34093316 142.01160799 -89.10243435 121.55641949 -90.42700195 100.49853516 C-90.71566943 86.85180899 -90.8071089 74.29652503 -86.25 61.3125 C-85.88777344 60.26449219 -85.52554687 59.21648437 -85.15234375 58.13671875 C-80.086414 44.89661084 -72.1576162 34.23477244 -62.25 24.3125 C-61.60546875 23.65636719 -60.9609375 23.00023437 -60.296875 22.32421875 C-44.24699245 7.14661243 -21.75106811 -0.1278167 0 0 Z M-44.25 53.3125 C-54.86396009 67.32608977 -58.80879541 81.8906689 -57.25 99.3125 C-54.5861861 114.78495199 -46.44108428 128.39403784 -33.546875 137.51757812 C-24.51525095 143.42210225 -15.07096762 147.34634218 -4.25 148.3125 C-3.56035156 148.37695312 -2.87070313 148.44140625 -2.16015625 148.5078125 C13.0085178 149.26498425 27.91304713 143.14011722 39.3671875 133.53515625 C51.49924254 122.21853442 58.38482728 107.43554571 59.125 90.8125 C58.35430124 74.13457875 51.66232218 59.8612504 39.75 48.3125 C38.90501953 47.45398438 38.90501953 47.45398438 38.04296875 46.578125 C27.25544574 36.39428332 12.84817888 32.80712279 -1.55395508 32.96313477 C-18.54016997 33.4884449 -32.79690209 40.75990469 -44.25 53.3125 Z " fill="#FFFFFF" transform="translate(1782.25,218.6875)"/>
<path d="M0 0 C1.59898384 -0.01925285 1.59898384 -0.01925285 3.23027039 -0.03889465 C4.38122696 -0.04628159 5.53218353 -0.05366852 6.71801758 -0.0612793 C7.91501785 -0.06935104 9.11201813 -0.07742279 10.34529114 -0.08573914 C12.8864294 -0.09957732 15.42758623 -0.11030066 17.96875 -0.11816406 C20.54139739 -0.12961669 23.11402231 -0.14995994 25.68652344 -0.1796875 C40.18616647 -0.34716741 53.80034457 -0.36278069 67.67504883 4.17700195 C68.95255005 4.59284546 68.95255005 4.59284546 70.25585938 5.01708984 C94.04116225 13.5949024 110.95477237 31.32178073 121.98754883 53.55200195 C130.84880878 74.21181973 132.32623996 98.84868157 124.67504883 120.17700195 C124.3012207 121.24563477 123.92739258 122.31426758 123.54223633 123.4152832 C114.55351245 146.83954047 96.70718162 162.93624314 74.56958008 173.68481445 C59.06763249 180.52451128 43.31288697 181.3448801 26.59692383 181.2746582 C25.30433655 181.27324326 24.01174927 181.27182831 22.67999268 181.27037048 C19.28694632 181.26659996 15.89394457 181.2568182 12.50091553 181.2456665 C9.02120568 181.23533306 5.54148844 181.23084762 2.06176758 181.22583008 C-4.73382336 181.21518949 -11.52938511 181.19818107 -18.32495117 181.17700195 C-18.39506807 159.41071157 -18.44795252 137.64443984 -18.48038769 115.87805939 C-18.49584897 105.77128827 -18.51692439 95.66458737 -18.55126953 85.55786133 C-18.58119447 76.74765586 -18.60053155 67.93750126 -18.60721666 59.12724638 C-18.61112366 54.46335267 -18.62029033 49.79960447 -18.64214134 45.13575745 C-18.66255537 40.74288625 -18.66877504 36.35022003 -18.66427422 31.95730591 C-18.66509722 30.34809758 -18.67103356 28.73888216 -18.6825676 27.12971497 C-18.787702 11.70067055 -18.787702 11.70067055 -15.32495117 5.17700195 C-10.33133798 1.03336548 -6.32942817 0.06666289 0 0 Z M14.67504883 33.17700195 C14.67504883 71.12700195 14.67504883 109.07700195 14.67504883 148.17700195 C50.00654046 148.71769229 50.00654046 148.71769229 78.56567383 131.3527832 C79.26176758 130.63477539 79.95786133 129.91676758 80.67504883 129.17700195 C81.53356445 128.33202148 81.53356445 128.33202148 82.40942383 127.4699707 C92.55141633 116.72677761 96.181066 102.30371832 96.09912109 87.94995117 C95.87939225 80.89643329 94.35428992 74.71541483 91.67504883 68.17700195 C91.34762695 67.31977539 91.02020508 66.46254883 90.68286133 65.5793457 C84.78552758 51.9982596 72.3707271 41.66576678 58.86254883 36.30200195 C43.78852952 30.757113 33.20466376 33.17700195 14.67504883 33.17700195 Z " fill="#FFFFFF" transform="translate(233.324951171875,218.822998046875)"/>
<path d="M0 0 C3.97234034 0.79446807 5.49453605 1.95846757 8.4375 4.6875 C14.2829265 14.45758619 17.04539243 27.04085157 20.64654541 37.77532959 C22.65594897 43.76356888 24.67966126 49.74696861 26.703125 55.73046875 C27.31312851 57.53538788 27.31312851 57.53538788 27.93545532 59.37677002 C31.40629608 69.63089468 34.96976081 79.85060243 38.5625 90.0625 C45.89638029 110.92780138 52.94701633 131.88763843 60.00698853 152.84674072 C66.89422966 173.2913399 73.84377566 193.70970448 81.06054688 214.04101562 C83.82553251 221.85611716 86.45344213 229.62760993 88.4375 237.6875 C83.32300968 237.11409709 78.75512588 235.96558323 73.9375 234.125 C73.25333008 233.86614014 72.56916016 233.60728027 71.86425781 233.34057617 C48.52691206 224.21589869 48.52691206 224.21589869 45.10832214 216.8067627 C44.71832535 215.62851929 44.32832855 214.45027588 43.92651367 213.23632812 C43.70589862 212.58238068 43.48528357 211.92843323 43.25798321 211.25466919 C42.5277878 209.08004052 41.81678407 206.89961998 41.10546875 204.71875 C40.59247871 203.17972078 40.07822181 201.64111331 39.56277466 200.10290527 C38.46970214 196.83311048 37.38475056 193.56078073 36.30630493 190.28613281 C34.62576143 185.18375128 32.92768499 180.0873315 31.2253418 174.9921875 C30.65888223 173.29638924 30.09243019 171.60058846 29.52598572 169.90478516 C29.24677717 169.0690094 28.96756863 168.23323364 28.67989922 167.37213135 C27.83647704 164.84536638 26.9948046 162.3180246 26.15357971 159.79052734 C21.25431406 145.0787101 16.18386669 130.43121122 11.0300293 115.80664062 C10.49513448 114.28781164 9.9603799 112.76893326 9.42578125 111.25 C9.17779282 110.54588989 8.92980438 109.84177979 8.67430115 109.11633301 C5.82957516 101.00672082 3.13068381 92.84844383 0.4375 84.6875 C-2.94947373 92.76384072 -5.74954791 101.00348381 -8.4921875 109.31640625 C-8.96398699 110.73844941 -9.43610145 112.1603881 -9.9085083 113.58222961 C-10.9059394 116.58577189 -11.90169917 119.58986033 -12.89605713 122.59442139 C-15.48049472 130.40267794 -18.07627752 138.20716636 -20.671875 146.01171875 C-20.92780048 146.78153831 -21.18372597 147.55135788 -21.44740677 148.34450531 C-26.32690033 163.01935451 -31.28606543 177.66589848 -36.31201172 192.29125977 C-36.56536285 193.02927322 -36.81871399 193.76728668 -37.07974243 194.52766418 C-37.56248094 195.93045449 -38.04738251 197.33250287 -38.53475952 198.73368835 C-39.70649727 202.11591263 -40.82328849 205.50393739 -41.85839844 208.93066406 C-42.1769429 209.95935104 -42.1769429 209.95935104 -42.50192261 211.00881958 C-43.07619101 212.87461507 -43.63231027 214.74596979 -44.18701172 216.61767578 C-46.79903326 222.44720344 -52.24720379 224.82030162 -57.75 227.5625 C-58.43473389 227.90474609 -59.11946777 228.24699219 -59.82495117 228.59960938 C-78.60363019 237.6875 -78.60363019 237.6875 -87.5625 237.6875 C-84.73832169 227.92015908 -81.45306982 218.31388786 -78.19921875 208.68359375 C-77.56431483 206.80074644 -76.92953667 204.91785672 -76.2948761 203.03492737 C-74.96022736 199.07640356 -73.62446945 195.11825643 -72.2878418 191.16040039 C-70.62019785 186.22229425 -68.95461404 181.28349674 -67.2898035 176.34443474 C-60.37167502 155.82168776 -53.42172609 135.31020525 -46.41325378 114.81812859 C-42.48575074 103.33430302 -38.57794844 91.84414211 -34.69921875 80.34375 C-34.23808565 78.97717357 -33.77693972 77.61060147 -33.31578064 76.24403381 C-31.49945859 70.86067959 -29.68373814 65.47712555 -27.87182617 60.09228516 C-25.21059466 52.18557249 -22.53325506 44.28470197 -19.82904053 36.39257812 C-18.98748851 33.9307414 -18.15090368 31.46720087 -17.31939697 29.00195312 C-16.15183382 25.54775334 -14.96357387 22.10137123 -13.76953125 18.65625 C-13.43169113 17.64365112 -13.09385101 16.63105225 -12.74577332 15.58776855 C-10.36382615 8.81572692 -7.64899953 1.47612272 0 0 Z " fill="#FFFFFF" transform="translate(788.5625,201.3125)"/>
<path d="M0 0 C0.70327927 -0.00014603 1.40655853 -0.00029205 2.13114929 -0.0004425 C4.43064578 0.00024813 6.73005887 0.00800029 9.02954102 0.01586914 C10.6337937 0.01773634 12.23804696 0.01915882 13.84230042 0.02015686 C18.04590454 0.02395824 22.2494736 0.03376799 26.45306396 0.04486084 C31.50674465 0.05693411 36.56043711 0.06148854 41.61412811 0.06731415 C49.27475881 0.07698119 56.93531273 0.09615434 64.59594727 0.11352539 C64.59594727 11.00352539 64.59594727 21.89352539 64.59594727 33.11352539 C59.67043945 33.1509082 54.74493164 33.18829102 49.67016602 33.22680664 C46.53015858 33.25712016 43.39020552 33.28828999 40.25024414 33.32250977 C35.27786161 33.37661907 30.30558662 33.42773616 25.33300781 33.45996094 C21.31925286 33.48617187 17.30586379 33.52669636 13.29233742 33.57671165 C11.76916912 33.59326115 10.24593771 33.60484899 8.72269249 33.6111393 C-9.16347179 33.6923991 -25.40939686 38.07633382 -38.40405273 51.11352539 C-44.09420244 58.11196149 -48.74725834 65.42389954 -51.40405273 74.11352539 C-51.62706055 74.81477539 -51.85006836 75.51602539 -52.07983398 76.23852539 C-55.75467137 89.8379236 -53.54775641 104.37997448 -47.27905273 116.80102539 C-39.26207623 130.73409357 -27.72701329 140.19618108 -12.40405273 145.11352539 C-3.93819593 147.38574069 4.52789774 147.45771049 13.22875977 147.52758789 C14.71663442 147.54633568 16.20449885 147.56591167 17.69235229 147.58627319 C21.57525554 147.63721962 25.45819312 147.6770438 29.34124756 147.7144165 C34.01799369 147.76179691 38.69457452 147.82323135 43.3711853 147.88226318 C50.44603784 147.97001742 57.52086609 148.04010838 64.59594727 148.11352539 C64.59594727 159.00352539 64.59594727 169.89352539 64.59594727 181.11352539 C48.43655364 181.19374301 48.43655364 181.19374301 41.46313477 181.21118164 C36.73457256 181.22306323 32.00608897 181.23700414 27.27758789 181.2644043 C23.4585243 181.286392 19.63954521 181.29814765 15.82042313 181.30327988 C14.37503355 181.30692974 12.92964774 181.31405435 11.48429489 181.3249855 C-14.1388666 181.51078107 -38.07672312 175.6752262 -57.40405273 158.11352539 C-58.30768555 157.30270508 -59.21131836 156.49188477 -60.14233398 155.65649414 C-76.44308181 140.25758575 -86.77115873 118.79244551 -87.64233398 96.25024414 C-88.19003517 69.24188441 -80.70999046 47.40989457 -62.40405273 27.11352539 C-46.2623113 10.48672328 -23.26472201 -0.04088703 0 0 Z " fill="#FFFFFF" transform="translate(1063.404052734375,218.886474609375)"/>
<path d="M0 0 C37.29 0 74.58 0 113 0 C113 8.91 113 17.82 113 27 C86.6 27 60.2 27 33 27 C33 33.93 33 40.86 33 48 C72.27 48 111.54 48 152 48 C152 58.89 152 69.78 152 81 C134.01481061 81.06777814 116.02973059 81.12301734 98.04444885 81.15543652 C89.6931602 81.17089086 81.34195667 81.19195293 72.99072266 81.22631836 C65.70991075 81.25626465 58.42916051 81.27558541 51.14828873 81.28226548 C47.29480606 81.28616891 43.44149975 81.29531244 39.58807373 81.31719017 C35.95687119 81.33763811 32.32591674 81.34381715 28.69466209 81.33932304 C26.73523663 81.34053458 24.77583783 81.3566331 22.81648254 81.3732605 C16.17446762 81.35005836 10.97816875 81.00603889 5 78 C0.25395389 72.40209946 -0.12693594 67.40298353 -0.11352539 60.28198242 C-0.11364593 59.61726331 -0.11376646 58.95254419 -0.11389065 58.26768208 C-0.11314824 56.1302428 -0.10555083 53.99289229 -0.09765625 51.85546875 C-0.09664917 50.54340454 -0.09564209 49.23134033 -0.09460449 47.8795166 C-0.08937576 42.98216883 -0.07541449 38.08483353 -0.0625 33.1875 C-0.041875 22.235625 -0.02125 11.28375 0 0 Z " fill="#FFFFFF" transform="translate(1206,318)"/>
<path d="M0 0 C1.36062105 0.00056481 2.72124271 0.00024619 4.0818634 -0.00088501 C7.75907155 -0.00145679 11.43614815 0.01026913 15.11332583 0.02426291 C18.96234892 0.03679945 22.8113753 0.03794306 26.66041565 0.04031372 C33.94173436 0.04651992 41.22299273 0.06291905 48.50428492 0.0830127 C56.79690491 0.10539853 65.08952785 0.11637187 73.38217056 0.12640357 C90.43393906 0.14728607 107.48562449 0.18395151 124.53735352 0.22705078 C124.53735352 11.11705078 124.53735352 22.00705078 124.53735352 33.22705078 C85.26735352 33.22705078 45.99735352 33.22705078 5.53735352 33.22705078 C5.53735352 40.15705078 5.53735352 47.08705078 5.53735352 54.22705078 C31.93735352 54.22705078 58.33735352 54.22705078 85.53735352 54.22705078 C85.53735352 63.13705078 85.53735352 72.04705078 85.53735352 81.22705078 C48.24735352 81.22705078 10.95735352 81.22705078 -27.46264648 81.22705078 C-27.50389648 70.31642578 -27.54514648 59.40580078 -27.58764648 48.16455078 C-27.60585449 44.73040771 -27.6240625 41.29626465 -27.64282227 37.75805664 C-27.64866503 35.02767086 -27.6537611 32.29728334 -27.65795898 29.56689453 C-27.66318573 28.86456192 -27.66841248 28.16222931 -27.67379761 27.43861389 C-27.68855466 25.34968871 -27.69045459 23.26108906 -27.68969727 21.17211914 C-27.69413849 19.99741562 -27.69857971 18.8227121 -27.70315552 17.6124115 C-27.33986261 12.49876762 -26.44207348 8.48631407 -23.27514648 4.41455078 C-16.40478668 -0.9290624 -8.31842605 -0.04727507 0 0 Z " fill="#FFFFFF" transform="translate(1233.462646484375,218.77294921875)"/>
<path d="M0 0 C1.36062105 0.00056481 2.72124271 0.00024619 4.0818634 -0.00088501 C7.75907155 -0.00145679 11.43614815 0.01026913 15.11332583 0.02426291 C18.96234892 0.03679945 22.8113753 0.03794306 26.66041565 0.04031372 C33.94173436 0.04651992 41.22299273 0.06291905 48.50428492 0.0830127 C56.79690491 0.10539853 65.08952785 0.11637187 73.38217056 0.12640357 C90.43393906 0.14728607 107.48562449 0.18395151 124.53735352 0.22705078 C124.53735352 11.11705078 124.53735352 22.00705078 124.53735352 33.22705078 C85.26735352 33.22705078 45.99735352 33.22705078 5.53735352 33.22705078 C5.53735352 40.15705078 5.53735352 47.08705078 5.53735352 54.22705078 C31.93735352 54.22705078 58.33735352 54.22705078 85.53735352 54.22705078 C85.53735352 63.13705078 85.53735352 72.04705078 85.53735352 81.22705078 C48.24735352 81.22705078 10.95735352 81.22705078 -27.46264648 81.22705078 C-27.50389648 70.31642578 -27.54514648 59.40580078 -27.58764648 48.16455078 C-27.60585449 44.73040771 -27.6240625 41.29626465 -27.64282227 37.75805664 C-27.64866503 35.02767086 -27.6537611 32.29728334 -27.65795898 29.56689453 C-27.66318573 28.86456192 -27.66841248 28.16222931 -27.67379761 27.43861389 C-27.68855466 25.34968871 -27.69045459 23.26108906 -27.68969727 21.17211914 C-27.69413849 19.99741562 -27.69857971 18.8227121 -27.70315552 17.6124115 C-27.33986261 12.49876762 -26.44207348 8.48631407 -23.27514648 4.41455078 C-16.40478668 -0.9290624 -8.31842605 -0.04727507 0 0 Z " fill="#FFFFFF" transform="translate(515.462646484375,218.77294921875)"/>
<path d="M0 0 C37.29 0 74.58 0 113 0 C113 8.91 113 17.82 113 27 C86.6 27 60.2 27 33 27 C33 33.93 33 40.86 33 48 C70.62 48 108.24 48 147 48 C146.32771906 53.37824752 145.7770344 57.29856182 144.15234375 62.25 C143.79462891 63.35214844 143.43691406 64.45429688 143.06835938 65.58984375 C142.69517578 66.71519531 142.32199219 67.84054687 141.9375 69 C141.56044922 70.15628906 141.18339844 71.31257813 140.79492188 72.50390625 C139.86970552 75.3381133 138.93792289 78.16997782 138 81 C121.84021162 81.07017113 105.68047289 81.12302778 89.52056885 81.15543652 C82.01675311 81.17088637 74.5130322 81.19193972 67.00927734 81.22631836 C60.46679335 81.25627855 53.92437805 81.27558868 47.38182735 81.28226548 C43.91957529 81.28616658 40.45751972 81.29529502 36.99533081 81.31719017 C33.12445472 81.34146991 29.25376852 81.34196575 25.3828125 81.34057617 C24.24273239 81.351362 23.10265228 81.36214783 21.92802429 81.3732605 C15.57721022 81.3486166 10.73355035 80.82112078 5 78 C0.43463005 72.49814391 -0.12643071 68.27258384 -0.11352539 61.30371094 C-0.11364593 60.62920017 -0.11376646 59.95468941 -0.11389065 59.25973892 C-0.11314652 57.08458363 -0.10554115 54.90951489 -0.09765625 52.734375 C-0.09618528 51.38818401 -0.09516552 50.04199245 -0.09460449 48.69580078 C-0.08936958 43.71385844 -0.07540833 38.73192836 -0.0625 33.75 C-0.0315625 17.04375 -0.0315625 17.04375 0 0 Z " fill="#FFFFFF" transform="translate(488,318)"/>
<path d="M0 0 C0.66 0 1.32 0 2 0 C2.4021875 1.57974609 2.4021875 1.57974609 2.8125 3.19140625 C8.58551115 24.83577671 19.81090591 43.66023506 39.6875 55.1875 C50.88385847 61.39891809 62.5039355 65.4127396 74.91870117 68.35229492 C76.96002048 68.8460635 78.98254477 69.41633371 81 70 C81.33 70.66 81.66 71.32 82 72 C80.8140625 72.35191406 79.628125 72.70382812 78.40625 73.06640625 C48.99652912 81.96205229 23.96903599 95.41297072 8.82421875 123.2421875 C6.23258761 128.31236042 4.60941289 133.66447992 3.0078125 139.11328125 C2 142 2 142 0 143 C-0.29132813 142.04480469 -0.58265625 141.08960938 -0.8828125 140.10546875 C-4.87714789 127.3576955 -10.30189269 117.23996834 -19 107 C-19.7734375 106.02417969 -20.546875 105.04835938 -21.34375 104.04296875 C-24.05295559 100.79882776 -27.10442031 98.20820723 -30.4375 95.625 C-31.04513184 95.15239746 -31.65276367 94.67979492 -32.27880859 94.19287109 C-46.68064072 83.2385818 -62.80171927 77.1289289 -80 72 C-77.2200608 69.2200608 -74.09970427 69.0194552 -70.375 68.25 C-47.63558551 63.16005889 -26.66570847 52.71155947 -12.58984375 33.5078125 C-6.04857717 23.18964753 -1.32688033 12.20729907 0 0 Z " fill="#FFFFFF" transform="translate(789,379)"/>
<path d="M0 0 C7.45376629 7.08988164 11.72786359 16.21433337 12.0625 26.5 C11.90604895 36.99786523 8.28671285 46.64167089 0.75 54 C-7.95064661 61.23728375 -16.51436973 63.62612553 -27.75 63.34765625 C-38.71491934 62.2585069 -47.10260436 57.02775072 -54.0625 48.6875 C-60.5612615 39.74057492 -61.2373883 30.9186776 -60.25 20 C-58.40482442 10.36818346 -52.7918008 3.21572704 -45.0625 -2.6640625 C-30.73974448 -11.94130187 -13.15176368 -10.83548291 0 0 Z M-48.25 8 C-54.53591505 17.03936075 -55.6179514 25.56429972 -53.875 36.3125 C-51.79391833 43.4806702 -45.77244909 49.55105921 -39.7890625 53.7109375 C-32.07440099 57.92114709 -24.01202008 59.11360956 -15.4765625 56.8515625 C-7.48178225 53.7939097 -0.78751586 48.13827198 3.00390625 40.4609375 C6.40035811 32.0585653 7.20047604 23.90205004 3.9921875 15.30078125 C-0.26943808 7.407393 -7.12526041 1.0097018 -15.4375 -2.25 C-28.13783743 -4.74842704 -39.65766903 -2.1529039 -48.25 8 Z " fill="#FFFFFF" transform="translate(1903.25,86)"/>
<path d="M0 0 C23.44444444 0 23.44444444 0 29 4.6875 C30.77440139 8.79080323 30.60898457 13.00695961 29.3125 17.25 C27.54142889 19.61142815 25.31640979 21.18878459 23 23 C23.42410156 23.41362793 23.84820313 23.82725586 24.28515625 24.25341797 C26.19527333 26.12207921 28.09768811 27.99839503 30 29.875 C31.00160156 30.85146484 31.00160156 30.85146484 32.0234375 31.84765625 C32.65507813 32.47285156 33.28671875 33.09804687 33.9375 33.7421875 C34.81728516 34.60626221 34.81728516 34.60626221 35.71484375 35.48779297 C37 37 37 37 37 39 C33.35705006 40.05763063 30.65076981 40.07749993 27 39 C23.60417439 36.39049709 20.75269377 33.25890268 17.91162109 30.06787109 C17.34652832 29.4383252 16.78143555 28.8087793 16.19921875 28.16015625 C15.45418091 27.28822632 15.45418091 27.28822632 14.6940918 26.39868164 C12.70369476 24.53074256 12.70369476 24.53074256 8 24 C8 28.95 8 33.9 8 39 C5.36 39 2.72 39 0 39 C0 26.13 0 13.26 0 0 Z M8 7 C8 10.63 8 14.26 8 18 C14.59223294 18.6921879 14.59223294 18.6921879 20.0625 15.5 C20.701875 14.675 21.34125 13.85 22 13 C20.91215032 9.75016865 20.91215032 9.75016865 19 7 C15.3308423 6.85689713 11.67284559 6.95778338 8 7 Z " fill="#FFFFFF" transform="translate(1865,93)"/>
</svg>
